<svg xmlns="http://www.w3.org/2000/svg" xmlns:xlink="http://www.w3.org/1999/xlink" viewBox="0 0 100 125" version="1.1" x="0px" y="0px"><title>svg/015-fly-flap-go-bye-sticker-tigeron-gragon</title><desc>Created with Sketch.</desc><g stroke="none" stroke-width="1" fill="none" fill-rule="evenodd"><g transform="translate(-750.000000, -450.000000)"><g transform="translate(156.000000, 153.000000)" fill="#000000" fill-rule="nonzero"><g transform="translate(598.000000, 309.000000)"><path d="M10.43399,0.746013181 C12.0371979,0.718029082 12.7791975,1.73427348 13.2483341,3.88516254 C13.3153057,4.19221278 13.6365919,5.99147085 13.8379322,6.9833737 L13.8379322,6.9833737 L13.9312612,7.42043356 C14.0740353,8.03603939 14.2322471,8.59177525 14.4187024,9.11447526 C14.5464399,9.47256844 14.6798197,9.80774444 14.820419,10.1259309 C17.8480712,8.59806987 21.4021682,7.74238287 25.3126412,7.74238287 C28.8845361,7.74238287 32.1590952,8.45630972 35.0059603,9.74320508 C35.2014899,9.41133062 35.3980156,9.04868155 35.6067998,8.64034297 C35.667822,8.52099633 35.729514,8.39853837 35.7940671,8.26872249 L35.7940671,8.26872249 L36.6445118,6.52467337 C38.1681286,3.47237341 39.147902,2.50286274 40.9855298,3.06468195 C44.3136857,4.0822013 44.3438183,9.67070808 41.7531348,14.6055343 C41.7396804,14.6311627 41.7261088,14.6568174 41.7124214,14.6824959 C42.118381,15.147488 42.5002141,15.6320281 42.856933,16.1345838 C44.4259595,15.1590664 46.1362358,13.9847553 47.9893348,12.5946227 C48.2968457,12.3639383 48.7388015,12.5521021 48.7856504,12.9336561 C49.2891239,17.0341187 48.2082971,20.8067737 46.081098,24.1591712 C46.2338172,25.1589095 46.3126412,26.1884372 46.3126412,27.2423829 L46.3104444,27.0357054 C47.7374384,26.5421922 49.1981604,25.9899505 50.6669294,25.377964 C51.034035,25.2250035 51.4241344,25.5410828 51.3506204,25.9319269 C50.8895724,28.3831353 49.6448456,30.6781998 47.834202,32.7933545 C48.1199701,33.8456725 48.2789568,34.9957527 48.3126412,36.2423829 C48.3126412,37.1639367 48.2307947,38.0596845 48.0705982,38.9261764 C50.4657972,36.4637611 53.7758493,34.7024123 58.1400579,33.8818062 C58.6057063,33.7942499 58.9206338,34.3431388 58.6100461,34.7009515 C57.5747777,35.8936329 57.4716801,37.0916013 58.0682763,38.3312658 C58.4038258,39.0285025 58.9366196,39.683279 59.5635382,40.258722 C59.7431763,40.4236101 59.9010062,40.5557394 60.0232232,40.6513741 L60.0232232,40.6513741 L60.1781133,40.766988 C60.5923157,41.0569243 60.3636868,41.7081686 59.8591437,41.6755658 C59.8208846,41.6730936 59.768998,41.6704915 59.7047369,41.6681508 L59.7047369,41.6681508 L59.3362645,41.6607016 C58.9230456,41.6578646 58.4827329,41.6724032 58.0352806,41.7102198 C57.278334,41.7741933 56.5816457,41.8982441 55.9903239,42.0920456 C54.8810544,42.4556008 54.2495297,42.9969696 54.1905782,43.8216307 C57.347046,43.135915 60.8713499,43.4009128 64.7615039,44.8438593 C65.2057373,45.0086356 65.1929842,45.6413248 64.7424714,45.7880657 C63.2407968,46.2771906 62.5354256,47.2509507 62.408334,48.6208203 C62.3368526,49.3912896 62.4563111,50.2269517 62.6973103,51.0430896 C62.8008946,51.3938752 62.9003811,51.6562095 62.9623276,51.7952882 C63.16804,52.2571421 62.6366513,52.6976148 62.2209651,52.4098099 C62.1894439,52.3879858 62.1463086,52.3590318 62.0924317,52.3239286 L62.0924317,52.3239286 L61.7804258,52.127766 C61.4276892,51.9125108 61.0427796,51.698195 60.6397612,51.5001552 C59.9579825,51.1651348 59.2969132,50.9126461 58.6902363,50.7742132 C56.7030932,50.3207823 55.6852177,51.0821819 55.7801152,53.7996896 C55.7968028,54.2775624 55.1975662,54.503999 54.8940566,54.134509 C53.7234548,52.7094284 52.0161097,52.0344483 49.8881455,51.9816645 C49.4195628,51.9700414 48.9405332,51.9886702 48.4547937,52.0343129 L48.5440195,52.2246874 L49.6037063,54.5448716 C51.8669834,59.5194063 53.0916651,61.4113081 55.3018451,62.6375789 C63.3041734,67.0774986 69.549648,66.5706488 76.1077662,61.3911439 C78.140871,59.7854278 80.4366865,61.3882392 79.5517404,63.3297428 C76.9927762,68.9439132 69.7665766,73.5784327 56.7547036,79.1899152 L56.7547036,79.1899152 L55.5558365,79.7027958 C55.4642428,79.741675 55.3727718,79.7803016 55.2814239,79.8186747 C58.849793,82.4306371 58.5837443,84.5623827 54.8953381,84.9587513 C54.3549525,85.016823 53.7840178,85.0331565 53.1959495,85.0105168 C52.8739982,85.7984471 51.8020488,86.1794681 50.0486016,86.0301822 C47.839172,85.8420747 45.263139,84.8749414 43.1790339,83.4869513 C35.5624425,84.7140065 29.3711087,83.2044027 25.1415039,78.2570617 C21.7842085,74.3300551 20.1198709,70.1419266 19.7592146,65.3649275 C19.613575,63.4358889 19.6519688,61.6099649 19.8923614,59.4190596 C16.360685,58.3683463 13.4491209,56.3138433 13.8408454,54.4223914 C14.1365037,52.9947973 15.3612461,52.3643388 17.0648269,52.4831748 C17.6871945,52.5265891 18.3663204,52.6702499 19.0512246,52.8930479 L19.1128024,52.7906335 C19.2226843,52.6152407 19.3342245,52.4540695 19.4480508,52.3067589 L19.1361668,52.2574208 C8.72958699,50.5389342 2.31264115,44.4022846 2.31264115,36.2423829 C2.31264115,34.5191883 2.63682172,32.9776968 3.31554503,31.4160921 C3.28404213,31.3722909 3.25164317,31.3272872 3.21937566,31.2821374 C0.998893907,28.1751657 -0.262503072,24.9582488 0.0515627803,22.220859 C0.0972346098,21.8227846 0.56916414,21.6374496 0.873514649,21.8980642 C2.07253431,22.9247818 3.283058,23.8191829 4.48370521,24.5903808 C4.56423395,23.9718652 4.67297198,23.3654684 4.80875131,22.7708858 C2.80196539,19.4449158 2.02672876,15.9847477 3.00127788,12.5447477 C3.10582579,12.1757106 3.56982116,12.0569611 3.83879749,12.3304029 C5.24381396,13.758745 6.57310765,14.995819 7.82608853,16.0559006 C7.88472519,15.9720179 7.94474915,15.8898458 8.00545077,15.8081726 C7.32067513,14.4797693 6.7965505,12.9877915 6.51503074,11.6282119 C5.38492837,6.17046332 6.9542949,0.806751485 10.43399,0.746013181 Z M43.8839008,46.5881546 L43.6951568,46.7676179 C39.8726339,50.3453419 33.8531672,52.5530251 26.3055864,52.7307655 L27.0462304,53.1224294 C28.8922856,54.077022 29.8189068,54.337385 30.5799381,54.0253611 C30.8354392,53.9206053 31.1274852,54.0428085 31.232241,54.2983096 C31.3369968,54.5538108 31.2147936,54.8458567 30.9592924,54.9506126 C29.8245083,55.4158756 28.7337799,55.1209582 26.6215244,54.028947 L26.6215244,54.028947 L25.1477708,53.2495851 C22.2427748,51.7529435 20.9925441,51.6737727 19.9602323,53.3215407 C18.9397163,54.9504803 20.2506421,56.7599913 23.3158602,58.2484113 C26.151747,59.6254716 29.7786953,60.3113621 31.7114824,59.8392991 C31.9797395,59.7737801 32.2503185,59.9381318 32.3158375,60.2063889 C32.3813565,60.474646 32.2170048,60.745225 31.9487477,60.810744 C29.7568917,61.3460819 25.9061318,60.6178665 22.8790513,59.1479656 C22.2040461,58.820194 21.5963739,58.4697813 21.0651449,58.1011808 C20.7331006,60.502771 20.6183624,62.4073223 20.6992435,64.3223962 L20.6992435,64.3223962 L20.7336979,64.9661431 L20.7563767,65.2896432 C21.1013709,69.8591929 22.6854365,73.8453255 25.9015929,77.6072427 C29.6772809,82.0236402 35.1981496,83.5273603 42.0344444,82.6385139 C41.1433558,81.9041299 40.4035229,81.0891095 39.9076612,80.2328466 C39.7692765,79.9938816 39.8508131,79.6879792 40.0897781,79.5495946 C40.3287432,79.4112099 40.6346456,79.4927464 40.7730302,79.7317115 C42.3259691,82.4133539 46.7427255,84.7451072 50.1334332,85.0337869 C53.1991386,85.2947965 53.2962191,83.7934465 48.9276788,80.0813576 C48.7172472,79.9025472 48.6916132,79.5870042 48.8704237,79.3765727 C49.0492341,79.1661411 49.3647771,79.1405071 49.5752087,79.3193176 C50.0375393,79.7121748 50.4553294,80.0931298 50.8294017,80.4607088 C52.2382033,79.9714777 53.6843398,79.4108386 55.1651053,78.782291 C68.6863163,73.0428774 76.1524288,68.3764924 78.6418061,62.9149906 C79.0737264,61.9673907 77.9685334,61.1958062 76.7275611,62.1759078 C70.3703257,67.1967584 64.1785113,68.0383103 56.6755256,64.4708152 C56.5047326,64.8500236 56.2302213,65.3268541 55.8270719,65.8535188 C54.539169,67.5360044 52.5488976,68.8666757 49.7265917,69.5467134 C49.1412404,69.6877544 48.7361058,68.9750188 49.1567562,68.5442264 C49.5970493,68.0933177 50.001746,67.645205 50.3723052,67.200699 C51.4708047,65.8829888 52.2256043,64.6562233 52.700383,63.5551897 C52.8704322,63.1608378 53.0157608,62.7631692 53.1486084,62.3262579 C53.00904,62.1984287 52.8727216,62.0654071 52.7385918,61.9255418 C52.4174139,62.2954212 51.9626051,62.8084574 51.7284181,63.0353045 C50.2880828,64.4304966 48.6588865,65.4842122 46.8823347,65.9344271 C46.6386655,65.9961779 46.3939416,66.0457659 46.1482804,66.0827399 C45.5651223,66.1705099 45.2185,65.4524351 45.6499741,65.0504314 C46.4866646,64.2708882 47.2280832,63.467495 47.8800081,62.6504189 C48.7137618,61.6054517 49.3604329,60.5923236 49.8424328,59.6516683 C49.9512228,59.4393571 50.180162,58.9269679 50.3939988,58.4696553 C50.299943,58.2952068 50.2057861,58.1143892 50.1103202,57.9275871 C49.9120238,58.1966126 49.625773,58.5395925 49.2519447,58.9179465 C47.8905762,60.2957962 46.1736227,61.2997191 44.1023942,61.6114557 C43.51509,61.6998497 43.170086,60.9725833 43.6100732,60.573646 C44.6898109,59.5946458 45.5823175,58.5145624 46.3055424,57.3704602 C46.8806629,56.460651 47.3164684,55.5632347 47.6316,54.7190134 C47.7229861,54.4741948 47.8791645,54.0251823 48.0206014,53.4752544 C47.8801921,53.1670956 47.767481,52.9237854 47.6387782,52.6495853 L47.6387782,52.6495853 L47.4103464,52.1713947 C46.6213588,52.3031678 45.8220041,52.4981351 45.0275634,52.7430546 C44.5369103,52.894319 44.0852963,53.0537299 43.6836619,53.2111236 C43.5403502,53.267285 43.4227396,53.3154347 43.3331698,53.3533698 L43.3331698,53.3533698 L43.1921112,53.4149678 C42.7583664,53.6128894 42.3200467,53.1491619 42.5420695,52.7272455 C42.5500587,52.7120635 42.5594904,52.6945125 42.5703671,52.6746585 L42.5703671,52.6746585 L42.7704016,52.3300824 C42.9550825,52.024213 43.1766918,51.6839611 43.4355652,51.3175687 C44.0363504,50.4672563 44.7384194,49.6139719 45.5434965,48.7935427 C45.0132135,47.9688455 44.4628612,47.2340762 43.8839008,46.5881546 Z M54.2103693,80.2601888 L54.1694386,80.2756866 C53.2967772,80.6262901 52.4358347,80.9529532 51.5871371,81.254988 C52.5451677,82.3258818 53.0905557,83.2589523 53.2494385,84.0108433 C53.7826093,84.0317367 54.3001033,84.0169596 54.78849,83.9644759 C57.4919718,83.6739506 57.6570122,82.4747321 54.2103693,80.2601888 Z M16.9952394,53.4807507 C15.7360587,53.3929145 14.9964205,53.7736568 14.8200657,54.6251905 C14.6430051,55.4801324 16.7197666,57.1906675 19.5501939,58.2570456 C19.7042984,58.3151053 19.8583985,58.3706404 20.0123762,58.4236216 C20.05577,58.0876673 20.1038673,57.7421562 20.1563622,57.3859891 C18.9399965,56.2872946 18.3764477,55.0666043 18.6697023,53.8233819 C18.0859462,53.6359283 17.5130866,53.5168739 16.9952394,53.4807507 Z M62.8469512,45.2599295 C56.3186672,43.3401836 50.9993279,45.0016174 46.7957734,48.9659724 C45.8009517,49.9041846 44.953334,50.9023839 44.2522774,51.8946139 L44.2522774,51.8946139 L44.2075486,51.9571593 L44.3541574,51.9080862 L44.7329542,51.7874368 C46.4721981,51.2512421 48.2390727,50.9404519 49.9129427,50.981972 C51.7880336,51.0284834 53.409734,51.5185645 54.6855985,52.5321836 L54.6855985,52.5321836 L54.8199562,52.6432095 L54.8394591,52.4807053 C55.1549973,50.1823597 56.6028871,49.3401535 58.7238241,49.7590436 L58.7238241,49.7590436 L58.9127005,49.7992723 C59.6043095,49.9570852 60.3347974,50.2360877 61.0807833,50.6026589 L61.0807833,50.6026589 L61.4007745,50.7648013 L61.619662,50.8828308 L61.5598606,50.6263882 C61.4348583,50.040598 61.3717311,49.4506822 61.3909983,48.873261 L61.3909983,48.873261 L61.4126101,48.5284406 C61.5343952,47.2157681 62.1035409,46.1439291 63.182102,45.4289548 L63.182102,45.4289548 L63.2527325,45.3834874 Z M25.3126412,8.74238287 C13.6077599,8.74238287 5.31264115,16.6986258 5.31264115,27.2423829 C5.31264115,27.9578144 5.35652349,28.6676612 5.44361108,29.3694615 C5.45830917,29.4879068 5.4301526,29.607703 5.36423002,29.7071995 C4.0177347,31.7394558 3.31264115,33.9566725 3.31264115,36.2423829 C3.31264115,44.1344374 9.78983018,50.0505971 20.3922736,51.4341765 C21.3738299,50.8456991 22.5791735,50.9959464 24.2789582,51.7282191 C24.6202218,51.7380899 24.9647778,51.7423829 25.3126412,51.7423829 C31.7877873,51.7423829 37.1170213,50.2549376 40.9078593,47.7066993 L40.9188691,47.7069619 C38.52081,47.6687503 35.8461153,46.9276312 33.1197924,45.1616472 C32.5585363,44.7980919 32.9230088,43.927536 33.5758695,44.0722906 C36.5847606,44.7394327 39.3473852,44.7039322 41.8217226,44.1527249 C42.6158539,43.9758166 44.5422155,43.236491 45.6373089,42.7276858 C45.7480756,42.5292282 45.8550659,42.3279137 45.9565589,42.1240952 C45.5025945,42.2477698 44.9343471,42.3642265 44.2636747,42.4472615 C41.3529015,42.8076403 38.1071048,42.3001191 34.7003733,40.5421867 C34.069499,40.2166447 34.427074,39.2585264 35.1169756,39.4259051 C38.3891983,40.219787 41.2932391,39.8516749 43.8185632,38.6569805 C44.7888065,38.1979724 45.6342774,37.6470383 46.3489298,37.0579192 C46.5899659,36.8592227 46.9680879,36.4762724 47.3099293,36.0977343 C47.3011635,35.2875391 47.2019195,34.4860221 47.0168256,33.6986623 C46.5261493,34.21035 46.0047941,34.7106322 45.4538875,35.1992748 C44.5184065,36.0290269 43.5639407,36.7630361 42.6403843,37.3944577 L42.1753058,37.7051774 C42.1013807,37.7533732 42.0293145,37.7997642 41.9592049,37.8443362 L41.4605393,38.1503854 C41.4438158,38.1601323 41.4291093,38.1686019 41.4164699,38.1757869 C41.1764044,38.3122536 40.8711648,38.2282702 40.734698,37.9882047 C40.5982313,37.7481392 40.6822147,37.4428995 40.9222802,37.3064328 L41.2284727,37.1223263 C41.4803152,36.9664173 41.7649224,36.7816246 42.0759959,36.5689483 C42.9666041,35.9600529 43.8881869,35.2513316 44.7903222,34.4511565 C47.4059342,32.1311633 49.3093653,29.5525481 50.1170739,26.7910603 L50.1501015,26.6687241 L49.2645044,27.0187866 C47.7815609,27.5925616 46.3176892,28.1056382 44.8986164,28.5592729 L44.0527544,28.8243308 L43.1465215,29.0961426 C42.85648,29.1810012 42.5787563,29.2601277 42.3141949,29.333561 L41.5034811,29.5517648 C41.343305,29.5933341 41.2213464,29.623798 41.14007,29.6432686 C40.614741,29.7691165 40.2907584,29.0879448 40.7198839,28.7598298 L40.8473213,28.6588766 C40.9964542,28.537544 41.209231,28.3553417 41.4726689,28.1146898 C42.0624626,27.57591 42.6812586,26.9444536 43.2983506,26.226249 C46.2812588,22.7545814 48.0808347,18.7218988 47.8939325,14.277677 L47.873449,13.9252668 L47.6184476,14.112925 L46.6287993,14.8237072 C43.5394484,17.0075234 40.872614,18.5583733 38.6120416,19.5753579 L38.2744075,19.7246056 C37.4100721,20.0998061 36.6950159,20.3602758 36.1252359,20.5317014 C35.7445437,20.6996028 35.3676005,20.813928 35.0023505,20.8624778 C31.9383775,21.2697473 28.9924054,18.3459187 29.8621941,15.5009682 C30.0598231,14.8545529 30.4149379,14.3508346 30.9734117,13.8480735 C31.2213,13.6249143 32.1361828,12.926675 32.5740442,12.5809364 L32.5740442,12.5809364 L32.7586937,12.4322846 C33.4109705,11.8847436 33.9601985,11.3069856 34.4630415,10.5951602 C31.7731344,9.40258354 28.684357,8.74238287 25.3126412,8.74238287 Z M57.1252485,35.1211263 L56.7132579,35.2245155 C52.5113091,36.320074 49.4824898,38.4121462 47.4349569,41.2284578 C46.9714244,42.4821304 46.3265789,43.6574709 45.5148969,44.7425078 C45.3102901,45.2513564 45.1279557,45.7760036 44.9662691,46.3142516 C45.4174427,46.8530109 45.8522205,47.4438184 46.2746447,48.0855931 C48.3254075,46.1909703 50.6341542,44.8095431 53.1991643,44.0718842 C53.1325398,42.7210246 53.9682387,41.7555348 55.4962632,41.2045765 L55.4962632,41.2045765 L55.6788813,41.1417806 C56.3529855,40.9208478 57.1228327,40.7837705 57.9510656,40.7137722 L57.9510656,40.7137722 L58.3088611,40.6879476 L58.5569664,40.6766217 L58.3739365,40.4873691 C57.9650843,40.0496298 57.6071447,39.5764862 57.326266,39.0716163 L57.326266,39.0716163 L57.1671953,38.7649166 C56.5955092,37.5770127 56.5313244,36.3651356 57.0875927,35.196783 L57.0875927,35.196783 L57.1252485,35.1211263 Z M7.32044115,43.5617177 L7.39364034,43.6416236 C7.44227036,43.6920881 7.50883638,43.757556 7.59284506,43.8345905 C7.83224054,44.0541117 8.1159372,44.2747801 8.44144629,44.4810256 C10.168757,45.5754654 12.2528933,45.8261396 14.6835702,44.7009099 C14.9341636,44.5849031 15.2313517,44.6940071 15.3473586,44.9446004 C15.4633654,45.1951938 15.3542614,45.492382 15.1036681,45.6083888 C12.3443718,46.8857457 9.90532178,46.5923834 7.90622794,45.3257393 C7.25640569,44.914006 6.80336594,44.4985769 6.55724974,44.2078902 C6.37881414,43.9971407 6.40500972,43.6816438 6.61575921,43.5032082 C6.82650869,43.3247726 7.14200555,43.3509682 7.32044115,43.5617177 Z M17.9923894,35.1743115 C19.0927557,35.0780419 20.0628145,35.8919519 20.1590764,36.9922302 C20.2553382,38.0925086 19.4413508,39.0625024 18.3409845,39.158772 C17.2406182,39.2550416 16.2705594,38.4411316 16.1742976,37.3408532 C16.0780357,36.2405748 16.8920231,35.2705811 17.9923894,35.1743115 Z M5.9923894,33.1743115 C7.09275568,33.0780419 8.06281447,33.8919519 8.15907635,34.9922302 C8.25533824,36.0925086 7.4413508,37.0625024 6.34098452,37.158772 C5.24061824,37.2550416 4.27055945,36.4411316 4.17429756,35.3408532 C4.07803568,34.2405748 4.89202312,33.2705811 5.9923894,33.1743115 Z M1.00916342,23.3086647 L1.0149025,23.4535858 C1.12906378,25.5651452 2.15718818,27.9885201 3.80451294,30.3754557 L3.81139205,30.3877633 C3.99948772,30.0318681 4.20590804,29.6727158 4.431,29.308 C4.3520941,28.5999137 4.31264115,27.9113746 4.31264115,27.2423829 C4.31264115,26.722064 4.33185263,26.2076964 4.36973506,25.6998646 C3.32289151,25.0518025 2.26702921,24.3122422 1.21608905,23.4770392 L1.00916342,23.3086647 Z M45.227257,25.4067974 L45.0869651,25.5965995 C44.7607324,26.0316689 44.4169151,26.4588598 44.0568302,26.8779459 C43.7345694,27.2530101 43.4117386,27.605551 43.0921752,27.9349378 L42.9040707,28.1237682 L43.3039263,28.006557 L43.7592294,27.8683794 C44.2697643,27.7116196 44.7870776,27.5468679 45.3098598,27.3740725 L45.3126412,27.2423829 C45.3126412,26.6211732 45.2838467,26.0089454 45.227257,25.4067974 Z M3.76268863,13.6695334 L3.7332611,13.8227725 C3.29145396,16.3436671 3.84844103,18.8908252 5.17694566,21.3930157 C5.67463649,19.7840907 6.37651314,18.2742255 7.26106757,16.887944 C6.20987082,16.0021698 5.1068042,14.9951761 3.95352442,13.8598172 L3.76268863,13.6695334 Z M40.6931581,4.02098671 C39.4764413,3.64899905 38.731414,4.49509373 37.2781714,7.50341057 L37.2781714,7.50341057 L36.5918522,8.90902677 L36.3295446,9.41868793 C36.1086199,9.83801557 35.8968424,10.2131329 35.6806196,10.5641521 C35.0179439,11.6399493 34.2935112,12.449532 33.40163,13.1982043 C33.1713531,13.3915057 32.4049124,13.9762528 31.947677,14.340051 L31.947677,14.340051 L31.6424755,14.5912786 C31.2092996,14.9812412 30.9576496,15.3381982 30.8184988,15.7933399 C30.1759792,17.8949269 32.4865122,20.1880927 34.8705874,19.8711965 C36.8315486,19.6105415 39.5320768,16.6849134 40.8677294,14.1407145 C43.2072765,9.68426201 43.1808416,4.78154787 40.6931581,4.02098671 Z M41.1803756,15.5985567 L41.1575669,15.6363677 C40.5942218,16.5308807 39.9140763,17.4191572 39.1766755,18.2037611 C40.0572373,17.7688146 40.9983795,17.2554922 42.0001402,16.6581499 C41.7411001,16.2939771 41.467451,15.941004 41.1803756,15.5985567 Z M10.4514424,1.74586088 C7.85048848,1.7912607 6.47370649,6.49676557 7.49425864,11.4254492 C7.72735362,12.5511647 8.15361475,13.7957801 8.69727639,14.9346365 C10.1428728,13.2153359 11.9082557,11.7496315 13.9361531,10.5985052 C13.7747935,10.2384341 13.6221364,9.85779094 13.4768332,9.45045492 C13.2765271,8.88892652 13.1080335,8.29707459 12.9571172,7.64636138 C12.9028815,7.41251087 12.8260067,7.0296385 12.7429947,6.599205 L12.7429947,6.599205 L12.2713043,4.09826531 C11.8919456,2.35898818 11.4317834,1.72874896 10.4514424,1.74586088 Z"/><path d="M68.7636887,46.790938 C68.7026919,46.9148051 68.5528302,46.9657715 68.4289631,46.9047747 C68.3050961,46.843778 68.2541296,46.6939162 68.3151264,46.5700492 C71.9220873,39.2453394 64.7587291,29.6144577 58.3032093,31.8141468 C58.172517,31.8586796 58.0304689,31.7888336 57.9859361,31.6581412 C57.9414033,31.5274489 58.0112494,31.3854009 58.1419417,31.3408681 C65.0449756,28.9886906 72.5568407,39.0881274 68.7636887,46.790938 Z M72.1644157,45.8677002 C72.1034189,45.9915672 71.9535572,46.0425337 71.8296901,45.9815369 C71.7058231,45.9205401 71.6548566,45.7706784 71.7158534,45.6468113 C75.6518747,37.6538739 67.4144838,26.5175423 58.2713132,28.4276428 C58.1361598,28.4558777 58.0037074,28.3692031 57.9754725,28.2340497 C57.9472376,28.0988963 58.0339122,27.9664439 58.1690202,27.9380268 C67.7267958,25.9415029 76.281576,37.5069209 72.1644157,45.8677002 Z"/></g></g></g></g><text x="0" y="115" fill="#000000" font-size="5px" font-weight="bold" font-family="'Helvetica Neue', Helvetica, Arial-Unicode, Arial, Sans-serif">Created by Xinh Studio</text><text x="0" y="120" fill="#000000" font-size="5px" font-weight="bold" font-family="'Helvetica Neue', Helvetica, Arial-Unicode, Arial, Sans-serif">from the Noun Project</text></svg>